<svg xmlns="http://www.w3.org/2000/svg" version="1.1" xmlns:xlink="http://www.w3.org/1999/xlink" xmlns:svgjs="http://svgjs.dev/svgjs" width="1920" height="1080" preserveAspectRatio="none" viewBox="0 0 1920 1080"><g mask="url(&quot;#SvgjsMask1053&quot;)" fill="none"><rect width="1920" height="1080" x="0" y="0" fill="rgba(95, 158, 160, 0.92)"></rect><path d="M1027.327180972598 316.5755585441434L1288.032887855028 127.16177520035797 1098.6191045112428-133.54393168207218 837.9133976288125 55.869851661713255z" fill="rgba(134, 181, 183, 0.59)" class="triangle-float2"></path><path d="M-180.26 299.85 a248.25 248.25 0 1 0 496.5 0 a248.25 248.25 0 1 0 -496.5 0z" fill="rgba(134, 181, 183, 0.59)" class="triangle-float2"></path><path d="M1783.8149880284911 604.1240350747013L1991.1833424819822 600.504406983658 1987.563714390939 393.1360525301669 1780.1953599374478 396.7556806212102z" fill="rgba(134, 181, 183, 0.59)" class="triangle-float2"></path><path d="M2034.646,436.207C2120.093,435.963,2198.392,393.042,2244.186,320.902C2293.797,242.749,2318.472,142.944,2271.412,63.228C2224.922,-15.522,2126.068,-36.285,2034.646,-34.044C1947.857,-31.916,1861.516,-0.27,1817.169,74.364C1771.944,150.475,1777.416,246.222,1823.024,322.105C1867.272,395.726,1948.751,436.452,2034.646,436.207" fill="rgba(134, 181, 183, 0.59)" class="triangle-float3"></path><path d="M1374.865,820.778C1441.456,819.888,1504.948,786.804,1536.693,728.26C1567.145,672.102,1553.188,605.637,1521.647,550.084C1489.622,493.678,1439.724,442.476,1374.865,443.235C1310.945,443.983,1266.214,498.288,1233.913,553.45C1201.148,609.405,1175.128,675.329,1205.37,732.686C1237.2,793.054,1306.626,821.69,1374.865,820.778" fill="rgba(134, 181, 183, 0.59)" class="triangle-float1"></path><path d="M1400.3893100778669 276.0207768018266L1549.692104834899 489.2472655351091 1762.9185935681817 339.94447077807683 1613.6157988111493 126.71798204479435z" fill="rgba(134, 181, 183, 0.59)" class="triangle-float3"></path><path d="M1820.812,1347.729C1908.714,1347.627,1973.727,1275.883,2017.161,1199.461C2059.957,1124.162,2084.013,1034.131,2042.128,958.321C1999.097,880.436,1909.761,841.642,1820.812,844.075C1736.038,846.394,1660.616,895.7,1619.518,969.882C1579.684,1041.783,1585.021,1127.373,1623.669,1199.919C1665.059,1277.612,1732.782,1347.831,1820.812,1347.729" fill="rgba(134, 181, 183, 0.59)" class="triangle-float3"></path><path d="M895.2 629.6 a235 235 0 1 0 470 0 a235 235 0 1 0 -470 0z" fill="rgba(134, 181, 183, 0.59)" class="triangle-float2"></path><path d="M593.57 135.08 a266.33 266.33 0 1 0 532.66 0 a266.33 266.33 0 1 0 -532.66 0z" fill="rgba(134, 181, 183, 0.59)" class="triangle-float2"></path><path d="M202.57 174.19 a276.89 276.89 0 1 0 553.78 0 a276.89 276.89 0 1 0 -553.78 0z" fill="rgba(134, 181, 183, 0.59)" class="triangle-float3"></path><path d="M1770.709,851.942C1841.466,851.323,1894.598,794.138,1928.234,731.884C1959.957,673.172,1968.716,603.663,1936.406,545.272C1903.101,485.084,1839.422,443.994,1770.709,447.21C1706.398,450.22,1661.525,503.562,1629.862,559.619C1598.871,614.487,1580.984,677.914,1608.336,734.683C1639.395,799.146,1699.157,852.568,1770.709,851.942" fill="rgba(134, 181, 183, 0.59)" class="triangle-float3"></path><path d="M1219.627,1141.743C1279.928,1136.224,1327.562,1097.759,1359.846,1046.53C1395.069,990.637,1423.851,923.828,1394.145,864.817C1362.084,801.129,1290.917,769.35,1219.627,767.991C1145.688,766.582,1072.376,795.219,1033.196,857.939C991.707,924.356,983.58,1011.581,1026.576,1077.033C1066.514,1137.831,1147.188,1148.373,1219.627,1141.743" fill="rgba(134, 181, 183, 0.59)" class="triangle-float3"></path><path d="M146.41,863.265C188.666,864.398,230.208,846.397,252.216,810.307C275.108,772.768,277.63,724.165,253.748,687.249C231.486,652.836,187.393,646.245,146.41,646.756C106.587,647.252,64.342,655.864,43.609,689.868C22.184,725.007,29.007,769.485,49.995,804.886C70.531,839.524,106.156,862.186,146.41,863.265" fill="rgba(134, 181, 183, 0.59)" class="triangle-float2"></path><path d="M701.69,1117.526C780.533,1121.499,866.452,1109.431,909.889,1043.512C956.963,972.073,948.921,879.319,908.253,804.049C865.307,724.563,791.982,655.032,701.69,658.167C615.001,661.177,555.935,739.303,518.561,817.579C486.727,884.253,488.417,961.154,526.917,1024.214C563.802,1084.627,630.997,1113.964,701.69,1117.526" fill="rgba(134, 181, 183, 0.59)" class="triangle-float3"></path></g><defs><mask id="SvgjsMask1053"><rect width="1920" height="1080" fill="#ffffff"></rect></mask><style>
                @keyframes float1 {
                    0%{transform: translate(0, 0)}
                    50%{transform: translate(-10px, 0)}
                    100%{transform: translate(0, 0)}
                }

                .triangle-float1 {
                    animation: float1 5s infinite;
                }

                @keyframes float2 {
                    0%{transform: translate(0, 0)}
                    50%{transform: translate(-5px, -5px)}
                    100%{transform: translate(0, 0)}
                }

                .triangle-float2 {
                    animation: float2 4s infinite;
                }

                @keyframes float3 {
                    0%{transform: translate(0, 0)}
                    50%{transform: translate(0, -10px)}
                    100%{transform: translate(0, 0)}
                }

                .triangle-float3 {
                    animation: float3 6s infinite;
                }
            </style></defs></svg>